<svg width="1440" height="1024" viewBox="0 0 1440 1024" fill="none" xmlns="http://www.w3.org/2000/svg">
<g clip-path="url(#clip0_2502_3)">
<path d="M1524 854C1337.97 554.938 1113.83 265.417 766.794 153.913C670.598 123.005 500.455 100.845 418.536 182.843C347.346 254.102 335.384 395.917 341.226 489.492C346.937 580.956 379.969 682.418 451.05 742.622C483.302 769.939 527.24 783.676 542.088 736.114C581.464 609.985 428.639 483.608 311.603 505.403C137.287 537.865 -14.1792 684.764 -192.72 684.764C-213.182 684.764 -322.774 699.439 -322.774 658.728C-322.774 616.725 -254.439 589.498 -231.737 561.092C-197.031 517.668 -314.526 636.493 -362.514 664.514C-400.371 686.619 -405.919 679.09 -354.566 697.782C-301.891 716.955 -224.433 758.77 -205.725 814.946" stroke="#439139" stroke-opacity="0.57" stroke-width="20" stroke-linecap="round"/>
</g>
<defs>
<clipPath id="clip0_2502_3">
<rect width="1440" height="1024" fill="white"/>
</clipPath>
</defs>
</svg>
