<svg width="3491" height="3066" viewBox="0 0 3491 3066" fill="none" xmlns="http://www.w3.org/2000/svg">
<g clip-path="url(#clip0_2502_35)">
<mask id="mask0_2502_35" style="mask-type:luminance" maskUnits="userSpaceOnUse" x="0" y="0" width="3491" height="3066">
<path d="M743.293 3065.66L3490.77 2086.71L2747.59 0.937861L0.113525 979.891L743.293 3065.66Z" fill="white"/>
</mask>
<g mask="url(#mask0_2502_35)">
<path d="M1490.61 3388.87C2138.63 2815.29 2740.31 2188 2820.19 1520.25C2842.34 1335.15 2799.28 1037.06 2544.19 977.048C2322.51 924.895 1956.87 1033.14 1723.61 1127.01C1495.62 1218.77 1258.25 1364.2 1147.38 1534.64C1097.09 1611.97 1087.93 1696.17 1216.87 1677.59C1558.8 1628.29 1789.41 1264.6 1666.12 1092.93C1482.49 837.247 1022.75 722.029 918.762 430.185C906.846 396.741 805.904 230.827 908.867 194.14C1015.1 156.29 1123.75 243.448 1208.82 254.955C1338.86 272.561 969.9 187.573 871.089 134.394C793.131 92.428 808.938 76.572 791.572 177.354C773.765 280.742 713.122 445.042 581.945 526.23" stroke="#7A1212" stroke-opacity="0.35" stroke-width="20" stroke-linecap="round"/>
</g>
</g>
<defs>
<clipPath id="clip0_2502_35">
<rect width="2916.68" height="2214.22" fill="white" transform="translate(3490.77 2086.71) rotate(160.389)"/>
</clipPath>
</defs>
</svg>
