<svg width="1440" height="1276" viewBox="0 0 1440 1276" fill="none" xmlns="http://www.w3.org/2000/svg">
<g clip-path="url(#clip0_2502_3)">
<path d="M1146 -320C749.578 -133.974 365.804 90.1694 218 437.206C177.03 533.402 147.656 703.545 256.348 785.464C350.805 856.654 538.788 868.616 662.827 862.774C784.066 857.063 918.559 824.031 998.364 752.95C1034.57 720.698 1052.78 676.76 989.736 661.912C822.546 622.536 655.027 775.361 683.917 892.397C726.948 1066.71 921.67 1218.18 921.67 1396.72C921.67 1417.18 941.122 1526.77 887.157 1526.77C831.481 1526.77 795.39 1458.44 757.736 1435.74C700.175 1401.03 857.684 1518.53 894.826 1566.51C924.128 1604.37 914.149 1609.92 938.926 1558.57C964.34 1505.89 1019.77 1428.43 1094.23 1409.73" stroke="#127A71" stroke-opacity="0.35" stroke-width="20" stroke-linecap="round"/>
</g>
<defs>
<clipPath id="clip0_2502_3">
<rect width="1440" height="1276" fill="white"/>
</clipPath>
</defs>
</svg>
