<svg width="3757" height="3788" viewBox="0 0 3757 3788" fill="none" xmlns="http://www.w3.org/2000/svg">
<g clip-path="url(#clip0_2502_35)">
<mask id="mask0_2502_35" style="mask-type:luminance" maskUnits="userSpaceOnUse" x="0" y="0" width="3757" height="3788">
<path d="M2130.83 0.000227342L0 1544.97L1625.68 3787.11L3756.51 2242.14L2130.83 0.000227342Z" fill="white"/>
</mask>
<g mask="url(#mask0_2502_35)">
<path d="M1288.09 -246.861C938.492 505.337 656.175 1310.94 879.603 2079.32C941.536 2292.31 1114.84 2622.8 1380.04 2650.13C1610.52 2673.88 1903.92 2493.21 2080.02 2349.86C2252.15 2209.75 2409.08 2007.41 2436.61 1796.89C2449.1 1701.37 2420.06 1604.63 2307.86 1646.17C2010.29 1756.36 1957.11 2204.63 2148.97 2379.29C2434.73 2639.42 2915.85 2696.66 3143.32 3010.38C3169.38 3046.33 3337.79 3218.03 3257.93 3275.93C3175.55 3335.66 3035.09 3254.32 2950.45 3254.83C2821.05 3255.6 3203.82 3293.07 3319.91 3337.53C3411.51 3372.62 3403.81 3393.08 3375.05 3276.26C3345.54 3156.43 3328.88 2960.85 3415.23 2848.1" stroke="#7A1212" stroke-opacity="0.35" stroke-width="20" stroke-linecap="round"/>
</g>
</g>
<defs>
<clipPath id="clip0_2502_35">
<rect width="2631.99" height="2769.48" fill="white" transform="translate(0 1544.97) rotate(-35.9442)"/>
</clipPath>
</defs>
</svg>
