<svg width="3757" height="3788" viewBox="0 0 3757 3788" fill="none" xmlns="http://www.w3.org/2000/svg">
<mask id="mask0_2502_40" style="mask-type:luminance" maskUnits="userSpaceOnUse" x="-32" y="-16" width="3821" height="3819">
<path d="M3788.24 1857.36L1939.28 -15.7954L-31.7304 1929.75L1817.23 3802.91L3788.24 1857.36Z" fill="white"/>
</mask>
<g mask="url(#mask0_2502_40)">
<path d="M3905.04 987.011C3108.68 754.983 2269.69 597.527 1543.85 934.398C1342.65 1027.78 1042.12 1248.99 1055.14 1515.28C1066.46 1746.69 1289.35 2009.46 1457.64 2161.9C1622.13 2310.9 1845.85 2435.49 2058.11 2430.92C2154.42 2428.84 2245.67 2385.54 2187.66 2280.89C2033.81 2003.37 1582.65 2018.48 1438.96 2234.5C1224.96 2556.26 1241.01 3040.5 965.22 3312.73C933.616 3343.92 789.311 3536.32 720.02 3466.12C648.532 3393.7 707.739 3242.57 694.456 3158.98C674.163 3031.18 694.905 3415.22 668.482 3536.69C647.624 3632.53 626.238 3628.02 737.371 3581.95C851.376 3534.69 1042.2 3488.69 1166.69 3557.03" stroke="#777A12" stroke-opacity="0.47" stroke-width="20" stroke-linecap="round"/>
</g>
</svg>
